<svg width="102" height="48" viewBox="0 0 102 48" fill="none" xmlns="http://www.w3.org/2000/svg">
<path d="M97.5498 21.1656C97.6091 21.1802 97.6643 21.2092 97.71 21.2496C97.7554 21.2901 97.7911 21.3411 97.8125 21.3981C97.8337 21.4551 97.8407 21.5174 97.833 21.5778C97.8251 21.6383 97.8028 21.6968 97.7676 21.7467C97.7137 21.8531 97.644 21.9516 97.5615 22.0377C96.3501 23.2491 95.2474 24.4611 94.0723 25.6725C93.7323 26.023 93.3226 26.2986 92.8701 26.482C92.474 26.6427 92.0522 26.7286 91.626 26.7379H86.2451C85.7798 26.7007 85.3128 26.7841 84.8887 26.9791C84.4644 27.1743 84.0968 27.4754 83.8223 27.8531C83.5443 28.2247 83.3876 28.6735 83.374 29.1373V34.3346C83.3949 35.3147 83.0978 36.2762 82.5264 37.0729C82.1676 37.5534 81.7146 37.9566 81.1963 38.2584C80.6781 38.5601 80.1038 38.7539 79.5088 38.8287C79.0534 38.8652 78.5951 38.8652 78.1396 38.8287C78.0591 38.834 77.978 38.8219 77.9023 38.7936C77.8266 38.7651 77.7565 38.7208 77.6992 38.6637C77.6422 38.6066 77.5979 38.5371 77.5693 38.4615C77.5409 38.3858 77.5289 38.304 77.5342 38.2233C77.5342 37.836 77.534 37.4479 77.4736 37.0123V33.7653H77.4375V30.3971C77.4375 29.9127 77.4378 29.4274 77.5225 28.943C77.5754 28.3309 77.8411 27.7566 78.2734 27.3199C79.388 26.1085 80.5022 24.9933 81.6289 23.8424L83.2773 22.1832C83.5866 21.8523 83.9623 21.5901 84.3799 21.4147C84.7451 21.2613 85.1353 21.1771 85.5303 21.1656H97.1865C97.3072 21.1536 97.4291 21.1536 97.5498 21.1656ZM63.0576 9.151C63.1359 9.151 63.2145 9.18212 63.3555 9.20568V9.2135C63.2693 9.55128 63.1906 9.88166 63.1045 10.2037C62.8383 11.2562 62.5875 12.3085 62.3057 13.3531C61.8437 15.0733 60.6776 15.9926 58.9082 15.9928H45.1895C44.7901 17.5245 44.3983 19.0325 44.0146 20.5406C43.6388 22.0174 43.334 23.5182 42.8799 24.9635C41.9403 27.9484 44.1948 30.6268 47.1074 30.7135C49.5659 30.7842 52.0249 30.7457 54.4834 30.7535C54.961 30.7535 55.4472 30.7456 55.9248 30.7692C57.5141 30.8635 58.4302 31.9394 58.1484 33.5182C57.9214 34.775 57.5535 36.0085 57.2012 37.2418C57.162 37.3911 56.8168 37.5485 56.6211 37.5485C54.6637 37.572 52.6986 37.5877 50.7412 37.5485C48.9481 37.517 47.1231 37.5871 45.3613 37.3043C39.074 36.2672 34.7203 30.4464 35.3389 24.0758C35.5268 22.1357 35.9734 20.282 37.0303 18.6168C38.1421 16.8573 39.7083 15.906 41.8066 15.8981C42.7697 15.8981 43.7254 15.8911 44.6885 15.9147C45.0563 15.9225 45.2127 15.7885 45.291 15.4274C45.5651 14.2334 45.8704 13.0549 46.1758 11.8688C46.5908 10.2663 47.8206 9.18233 49.4414 9.16662C53.9828 9.12735 58.5241 9.151 63.0576 9.151ZM34.6777 9.14807C34.85 9.14807 35.0229 9.17919 35.2812 9.20275C35.1716 9.64264 35.093 10.0278 34.9912 10.4127C34.7328 11.4181 34.4821 12.4317 34.1924 13.4371C33.7381 15.0394 32.5007 15.982 30.833 15.9899C26.6127 16.0056 22.3922 15.9899 18.1719 15.9899H18.0547C16.6531 15.982 16.5671 16.0527 16.2461 17.4195C16.0269 18.3308 15.7916 19.2421 15.5332 20.2633H25.6494L24.1465 26.2643H27.0039C27.4659 26.2643 27.9287 26.265 28.3828 26.3121C30.4261 26.5008 31.5615 27.7807 31.46 29.8541C31.2877 33.2634 29.0086 36.9247 24.7568 37.4117C23.3555 37.5688 21.9228 37.5533 20.5059 37.5612C15.2675 37.5769 10.0205 37.5612 4.78223 37.5612H4C4.35234 36.2101 4.68873 34.9372 5.01758 33.6569C5.21333 32.9027 5.42447 32.1484 5.57324 31.3785C5.65937 30.9151 5.87102 30.7584 6.34082 30.7584C10.7805 30.7663 15.2205 30.7584 19.668 30.7584C20.4508 30.7584 21.2259 30.734 22.0088 30.734C22.6116 30.734 23.0035 30.444 23.1602 29.8785C23.4733 28.7396 23.7629 27.5924 24.0996 26.3199L24.084 26.3121H23.0967C20.7008 26.2964 18.2972 26.2958 15.9014 26.2487C15.0009 26.2329 14.218 25.8325 13.6621 25.1256C12.0021 23.0125 10.3415 20.9069 8.74414 18.7467C7.88318 17.5842 8.04022 16.2332 8.41602 14.9293C9.38695 11.4808 12.3309 9.1794 15.8936 9.16369C22.1576 9.13227 28.4216 9.14807 34.6777 9.14807ZM78.9395 10.0563C80.026 9.3812 81.2984 9.0674 82.5742 9.15978C83.0343 9.15989 83.2289 9.3535 83.2773 9.8258C83.3017 10.1643 83.3017 10.5049 83.2773 10.8434V18.2106C83.2655 18.6919 83.1657 19.1681 82.9834 19.6149C82.7748 20.1257 82.4623 20.5889 82.0654 20.9723C80.527 22.5712 78.976 24.1579 77.4375 25.7447C77.1193 26.0846 76.7312 26.3533 76.3008 26.5309C75.8705 26.7084 75.4066 26.7916 74.9414 26.775H69.6104L69.7432 26.7633H64.4727C64.2793 26.7754 64.0849 26.7754 63.8916 26.7633C63.3345 26.7028 63.2014 26.4237 63.54 25.9879C63.8792 25.5518 64.5095 24.8852 64.9941 24.3522C65.4787 23.8192 66.1454 23.1403 66.7148 22.4498C67.0865 22.0292 67.5458 21.6952 68.0605 21.4713C68.511 21.2754 68.9946 21.1678 69.4844 21.1539H74.7471C75.089 21.1643 75.4305 21.105 75.749 20.9801C76.0674 20.8552 76.3578 20.6664 76.6016 20.4264C76.8701 20.178 77.0845 19.8761 77.2305 19.5406C77.3764 19.2051 77.4507 18.8421 77.4492 18.4762V12.4791C77.4657 11.9807 77.6119 11.4947 77.873 11.0699C78.1343 10.6451 78.502 10.2959 78.9395 10.0563Z" fill="#FFB0B0"/>
<path d="M97.5498 21.1656C97.6091 21.1802 97.6643 21.2092 97.71 21.2496C97.7554 21.2901 97.7911 21.3411 97.8125 21.3981C97.8337 21.4551 97.8407 21.5174 97.833 21.5778C97.8251 21.6383 97.8028 21.6968 97.7676 21.7467C97.7137 21.8531 97.644 21.9516 97.5615 22.0377C96.3501 23.2491 95.2474 24.4611 94.0723 25.6725C93.7323 26.023 93.3226 26.2986 92.8701 26.482C92.474 26.6427 92.0522 26.7286 91.626 26.7379H86.2451C85.7798 26.7007 85.3128 26.7841 84.8887 26.9791C84.4644 27.1743 84.0968 27.4754 83.8223 27.8531C83.5443 28.2247 83.3876 28.6735 83.374 29.1373V34.3346C83.3949 35.3147 83.0978 36.2762 82.5264 37.0729C82.1676 37.5534 81.7146 37.9566 81.1963 38.2584C80.6781 38.5601 80.1038 38.7539 79.5088 38.8287C79.0534 38.8652 78.5951 38.8652 78.1396 38.8287C78.0591 38.834 77.978 38.8219 77.9023 38.7936C77.8266 38.7651 77.7565 38.7208 77.6992 38.6637C77.6422 38.6066 77.5979 38.5371 77.5693 38.4615C77.5409 38.3858 77.5289 38.304 77.5342 38.2233C77.5342 37.836 77.534 37.4479 77.4736 37.0123V33.7653H77.4375V30.3971C77.4375 29.9127 77.4378 29.4274 77.5225 28.943C77.5754 28.3309 77.8411 27.7566 78.2734 27.3199C79.388 26.1085 80.5022 24.9933 81.6289 23.8424L83.2773 22.1832C83.5866 21.8523 83.9623 21.5901 84.3799 21.4147C84.7451 21.2613 85.1353 21.1771 85.5303 21.1656H97.1865C97.3072 21.1536 97.4291 21.1536 97.5498 21.1656ZM63.0576 9.151C63.1359 9.151 63.2145 9.18212 63.3555 9.20568V9.2135C63.2693 9.55128 63.1906 9.88166 63.1045 10.2037C62.8383 11.2562 62.5875 12.3085 62.3057 13.3531C61.8437 15.0733 60.6776 15.9926 58.9082 15.9928H45.1895C44.7901 17.5245 44.3983 19.0325 44.0146 20.5406C43.6388 22.0174 43.334 23.5182 42.8799 24.9635C41.9403 27.9484 44.1948 30.6268 47.1074 30.7135C49.5659 30.7842 52.0249 30.7457 54.4834 30.7535C54.961 30.7535 55.4472 30.7456 55.9248 30.7692C57.5141 30.8635 58.4302 31.9394 58.1484 33.5182C57.9214 34.775 57.5535 36.0085 57.2012 37.2418C57.162 37.3911 56.8168 37.5485 56.6211 37.5485C54.6637 37.572 52.6986 37.5877 50.7412 37.5485C48.9481 37.517 47.1231 37.5871 45.3613 37.3043C39.074 36.2672 34.7203 30.4464 35.3389 24.0758C35.5268 22.1357 35.9734 20.282 37.0303 18.6168C38.1421 16.8573 39.7083 15.906 41.8066 15.8981C42.7697 15.8981 43.7254 15.8911 44.6885 15.9147C45.0563 15.9225 45.2127 15.7885 45.291 15.4274C45.5651 14.2334 45.8704 13.0549 46.1758 11.8688C46.5908 10.2663 47.8206 9.18233 49.4414 9.16662C53.9828 9.12735 58.5241 9.151 63.0576 9.151ZM34.6777 9.14807C34.85 9.14807 35.0229 9.17919 35.2812 9.20275C35.1716 9.64264 35.093 10.0278 34.9912 10.4127C34.7328 11.4181 34.4821 12.4317 34.1924 13.4371C33.7381 15.0394 32.5007 15.982 30.833 15.9899C26.6127 16.0056 22.3922 15.9899 18.1719 15.9899H18.0547C16.6531 15.982 16.5671 16.0527 16.2461 17.4195C16.0269 18.3308 15.7916 19.2421 15.5332 20.2633H25.6494L24.1465 26.2643H27.0039C27.4659 26.2643 27.9287 26.265 28.3828 26.3121C30.4261 26.5008 31.5615 27.7807 31.46 29.8541C31.2877 33.2634 29.0086 36.9247 24.7568 37.4117C23.3555 37.5688 21.9228 37.5533 20.5059 37.5612C15.2675 37.5769 10.0205 37.5612 4.78223 37.5612H4C4.35234 36.2101 4.68873 34.9372 5.01758 33.6569C5.21333 32.9027 5.42447 32.1484 5.57324 31.3785C5.65937 30.9151 5.87102 30.7584 6.34082 30.7584C10.7805 30.7663 15.2205 30.7584 19.668 30.7584C20.4508 30.7584 21.2259 30.734 22.0088 30.734C22.6116 30.734 23.0035 30.444 23.1602 29.8785C23.4733 28.7396 23.7629 27.5924 24.0996 26.3199L24.084 26.3121H23.0967C20.7008 26.2964 18.2972 26.2958 15.9014 26.2487C15.0009 26.2329 14.218 25.8325 13.6621 25.1256C12.0021 23.0125 10.3415 20.9069 8.74414 18.7467C7.88318 17.5842 8.04022 16.2332 8.41602 14.9293C9.38695 11.4808 12.3309 9.1794 15.8936 9.16369C22.1576 9.13227 28.4216 9.14807 34.6777 9.14807ZM78.9395 10.0563C80.026 9.3812 81.2984 9.0674 82.5742 9.15978C83.0343 9.15989 83.2289 9.3535 83.2773 9.8258C83.3017 10.1643 83.3017 10.5049 83.2773 10.8434V18.2106C83.2655 18.6919 83.1657 19.1681 82.9834 19.6149C82.7748 20.1257 82.4623 20.5889 82.0654 20.9723C80.527 22.5712 78.976 24.1579 77.4375 25.7447C77.1193 26.0846 76.7312 26.3533 76.3008 26.5309C75.8705 26.7084 75.4066 26.7916 74.9414 26.775H69.6104L69.7432 26.7633H64.4727C64.2793 26.7754 64.0849 26.7754 63.8916 26.7633C63.3345 26.7028 63.2014 26.4237 63.54 25.9879C63.8792 25.5518 64.5095 24.8852 64.9941 24.3522C65.4787 23.8192 66.1454 23.1403 66.7148 22.4498C67.0865 22.0292 67.5458 21.6952 68.0605 21.4713C68.511 21.2754 68.9946 21.1678 69.4844 21.1539H74.7471C75.089 21.1643 75.4305 21.105 75.749 20.9801C76.0674 20.8552 76.3578 20.6664 76.6016 20.4264C76.8701 20.178 77.0845 19.8761 77.2305 19.5406C77.3764 19.2051 77.4507 18.8421 77.4492 18.4762V12.4791C77.4657 11.9807 77.6119 11.4947 77.873 11.0699C78.1343 10.6451 78.502 10.2959 78.9395 10.0563Z" fill="url(#paint0_linear_2594_705)"/>
<path d="M97.5498 21.1656C97.6091 21.1802 97.6643 21.2092 97.71 21.2496C97.7554 21.2901 97.7911 21.3411 97.8125 21.3981C97.8337 21.4551 97.8407 21.5174 97.833 21.5778C97.8251 21.6383 97.8028 21.6968 97.7676 21.7467C97.7137 21.8531 97.644 21.9516 97.5615 22.0377C96.3501 23.2491 95.2474 24.4611 94.0723 25.6725C93.7323 26.023 93.3226 26.2986 92.8701 26.482C92.474 26.6427 92.0522 26.7286 91.626 26.7379H86.2451C85.7798 26.7007 85.3128 26.7841 84.8887 26.9791C84.4644 27.1743 84.0968 27.4754 83.8223 27.8531C83.5443 28.2247 83.3876 28.6735 83.374 29.1373V34.3346C83.3949 35.3147 83.0978 36.2762 82.5264 37.0729C82.1676 37.5534 81.7146 37.9566 81.1963 38.2584C80.6781 38.5601 80.1038 38.7539 79.5088 38.8287C79.0534 38.8652 78.5951 38.8652 78.1396 38.8287C78.0591 38.834 77.978 38.8219 77.9023 38.7936C77.8266 38.7651 77.7565 38.7208 77.6992 38.6637C77.6422 38.6066 77.5979 38.5371 77.5693 38.4615C77.5409 38.3858 77.5289 38.304 77.5342 38.2233C77.5342 37.836 77.534 37.4479 77.4736 37.0123V33.7653H77.4375V30.3971C77.4375 29.9127 77.4378 29.4274 77.5225 28.943C77.5754 28.3309 77.8411 27.7566 78.2734 27.3199C79.388 26.1085 80.5022 24.9933 81.6289 23.8424L83.2773 22.1832C83.5866 21.8523 83.9623 21.5901 84.3799 21.4147C84.7451 21.2613 85.1353 21.1771 85.5303 21.1656H97.1865C97.3072 21.1536 97.4291 21.1536 97.5498 21.1656ZM63.0576 9.151C63.1359 9.151 63.2145 9.18212 63.3555 9.20568V9.2135C63.2693 9.55128 63.1906 9.88166 63.1045 10.2037C62.8383 11.2562 62.5875 12.3085 62.3057 13.3531C61.8437 15.0733 60.6776 15.9926 58.9082 15.9928H45.1895C44.7901 17.5245 44.3983 19.0325 44.0146 20.5406C43.6388 22.0174 43.334 23.5182 42.8799 24.9635C41.9403 27.9484 44.1948 30.6268 47.1074 30.7135C49.5659 30.7842 52.0249 30.7457 54.4834 30.7535C54.961 30.7535 55.4472 30.7456 55.9248 30.7692C57.5141 30.8635 58.4302 31.9394 58.1484 33.5182C57.9214 34.775 57.5535 36.0085 57.2012 37.2418C57.162 37.3911 56.8168 37.5485 56.6211 37.5485C54.6637 37.572 52.6986 37.5877 50.7412 37.5485C48.9481 37.517 47.1231 37.5871 45.3613 37.3043C39.074 36.2672 34.7203 30.4464 35.3389 24.0758C35.5268 22.1357 35.9734 20.282 37.0303 18.6168C38.1421 16.8573 39.7083 15.906 41.8066 15.8981C42.7697 15.8981 43.7254 15.8911 44.6885 15.9147C45.0563 15.9225 45.2127 15.7885 45.291 15.4274C45.5651 14.2334 45.8704 13.0549 46.1758 11.8688C46.5908 10.2663 47.8206 9.18233 49.4414 9.16662C53.9828 9.12735 58.5241 9.151 63.0576 9.151ZM34.6777 9.14807C34.85 9.14807 35.0229 9.17919 35.2812 9.20275C35.1716 9.64264 35.093 10.0278 34.9912 10.4127C34.7328 11.4181 34.4821 12.4317 34.1924 13.4371C33.7381 15.0394 32.5007 15.982 30.833 15.9899C26.6127 16.0056 22.3922 15.9899 18.1719 15.9899H18.0547C16.6531 15.982 16.5671 16.0527 16.2461 17.4195C16.0269 18.3308 15.7916 19.2421 15.5332 20.2633H25.6494L24.1465 26.2643H27.0039C27.4659 26.2643 27.9287 26.265 28.3828 26.3121C30.4261 26.5008 31.5615 27.7807 31.46 29.8541C31.2877 33.2634 29.0086 36.9247 24.7568 37.4117C23.3555 37.5688 21.9228 37.5533 20.5059 37.5612C15.2675 37.5769 10.0205 37.5612 4.78223 37.5612H4C4.35234 36.2101 4.68873 34.9372 5.01758 33.6569C5.21333 32.9027 5.42447 32.1484 5.57324 31.3785C5.65937 30.9151 5.87102 30.7584 6.34082 30.7584C10.7805 30.7663 15.2205 30.7584 19.668 30.7584C20.4508 30.7584 21.2259 30.734 22.0088 30.734C22.6116 30.734 23.0035 30.444 23.1602 29.8785C23.4733 28.7396 23.7629 27.5924 24.0996 26.3199L24.084 26.3121H23.0967C20.7008 26.2964 18.2972 26.2958 15.9014 26.2487C15.0009 26.2329 14.218 25.8325 13.6621 25.1256C12.0021 23.0125 10.3415 20.9069 8.74414 18.7467C7.88318 17.5842 8.04022 16.2332 8.41602 14.9293C9.38695 11.4808 12.3309 9.1794 15.8936 9.16369C22.1576 9.13227 28.4216 9.14807 34.6777 9.14807ZM78.9395 10.0563C80.026 9.3812 81.2984 9.0674 82.5742 9.15978C83.0343 9.15989 83.2289 9.3535 83.2773 9.8258C83.3017 10.1643 83.3017 10.5049 83.2773 10.8434V18.2106C83.2655 18.6919 83.1657 19.1681 82.9834 19.6149C82.7748 20.1257 82.4623 20.5889 82.0654 20.9723C80.527 22.5712 78.976 24.1579 77.4375 25.7447C77.1193 26.0846 76.7312 26.3533 76.3008 26.5309C75.8705 26.7084 75.4066 26.7916 74.9414 26.775H69.6104L69.7432 26.7633H64.4727C64.2793 26.7754 64.0849 26.7754 63.8916 26.7633C63.3345 26.7028 63.2014 26.4237 63.54 25.9879C63.8792 25.5518 64.5095 24.8852 64.9941 24.3522C65.4787 23.8192 66.1454 23.1403 66.7148 22.4498C67.0865 22.0292 67.5458 21.6952 68.0605 21.4713C68.511 21.2754 68.9946 21.1678 69.4844 21.1539H74.7471C75.089 21.1643 75.4305 21.105 75.749 20.9801C76.0674 20.8552 76.3578 20.6664 76.6016 20.4264C76.8701 20.178 77.0845 19.8761 77.2305 19.5406C77.3764 19.2051 77.4507 18.8421 77.4492 18.4762V12.4791C77.4657 11.9807 77.6119 11.4947 77.873 11.0699C78.1343 10.6451 78.502 10.2959 78.9395 10.0563Z" fill="url(#paint1_linear_2594_705)"/>
<defs>
<linearGradient id="paint0_linear_2594_705" x1="21.5979" y1="22.8038" x2="100.477" y2="5.98755" gradientUnits="userSpaceOnUse">
<stop stop-color="#00FFEA"/>
<stop offset="1" stop-color="#0059FF"/>
</linearGradient>
<linearGradient id="paint1_linear_2594_705" x1="-20.7671" y1="22.7115" x2="96.411" y2="-13.3718" gradientUnits="userSpaceOnUse">
<stop stop-color="#00FFEA"/>
<stop offset="1" stop-color="#0059FF"/>
</linearGradient>
</defs>
</svg>
